# xmcd
#
# Track frame offsets: 
#        150
#        13900
#        26540
#        43755
#        65855
#        88117
#        99150
#        111125
#        126425
#        137362
#
# Disc length: 2077 seconds
#
# Revision: 2
# Processed by: cddbd v1.5.2PL0 Copyright (c) Steve Scherf et al.
# Submitted via: ExactAudioCopy v0.99pb4
#
DISCID=86081b0a
DTITLE=Bette Midler - Bette Midler
DYEAR=1973
DGENRE=
TTITLE0=Skylark
TTITLE1=Drinking Again
TTITLE2=Breaking Up Somebody's Home
TTITLE3=Surabaya Johnny
TTITLE4=I Shall be Released
TTITLE5=a) Optimistic Voices b)Lullaby of Broadway
TTITLE6=In The Mood
TTITLE7=a)Uptown b)Don't Say Nothin' Bad c)Da Doo Run Run
TTITLE8=Twisted
TTITLE9=Higher and Higher (Your Love Keeps Lifting Me)
EXTD=
EXTT0=
EXTT1=
EXTT2=
EXTT3=
EXTT4=
EXTT5=
EXTT6=
EXTT7=
EXTT8=
EXTT9=
PLAYORDER=
